# xmcd
#
# Track frame offsets: 
#        175
#        19692
#        37690
#        58205
#        74652
#        95282
#        113990
#        132132
#        151537
#        169032
#
# Disc length: 2510 seconds
#
# Revision: 0
# Processed by: cddbd v1.5.1PL0 Copyright (c) Steve Scherf et al.
# Submitted via: ExactAudioCopy v0.95a4
#
DISCID=7709cc0a
DTITLE=Baylor Religious Hour Choir - The Petra Collection
DYEAR=1991
DGENRE=Contemporary Christian
TTITLE0=Creed
TTITLE1=Don't Let Your Heart Be Hardened
TTITLE2=First Love
TTITLE3=What's In a Name
TTITLE4=Prayer
TTITLE5=Beyond Belief
TTITLE6=I'm Available
TTITLE7=Somebody's Gonna Praise His Name
TTITLE8=Open Book
TTITLE9=Love
EXTD=
EXTT0=
EXTT1=
EXTT2=
EXTT3=
EXTT4=
EXTT5=
EXTT6=
EXTT7=
EXTT8=
EXTT9=
PLAYORDER=
